{
    "asset" : {
        "generator" : "Khronos glTF Blender I/O v1.8.19",
        "version" : "2.0"
    },
    "scene" : 0,
    "scenes" : [
        {
            "name" : "Scene",
            "nodes" : [
                0
            ]
        }
    ],
    "nodes" : [
        {
            "mesh" : 0,
            "name" : "Rock_5"
        }
    ],
    "materials" : [
        {
            "doubleSided" : true,
            "name" : "Rock",
            "pbrMetallicRoughness" : {}
        }
    ],
    "meshes" : [
        {
            "name" : "Cube.005",
            "primitives" : [
                {
                    "attributes" : {
                        "POSITION" : 0,
                        "NORMAL" : 1,
                        "TEXCOORD_0" : 2
                    },
                    "indices" : 3,
                    "material" : 0
                }
            ]
        }
    ],
    "accessors" : [
        {
            "bufferView" : 0,
            "componentType" : 5126,
            "count" : 883,
            "max" : [
                0.4322183132171631,
                1.5929020643234253,
                0.6944564580917358
            ],
            "min" : [
                -0.8584786057472229,
                -0.10166077315807343,
                -0.6228621602058411
            ],
            "type" : "VEC3"
        },
        {
            "bufferView" : 1,
            "componentType" : 5126,
            "count" : 883,
            "type" : "VEC3"
        },
        {
            "bufferView" : 2,
            "componentType" : 5126,
            "count" : 883,
            "type" : "VEC2"
        },
        {
            "bufferView" : 3,
            "componentType" : 5123,
            "count" : 1896,
            "type" : "SCALAR"
        }
    ],
    "bufferViews" : [
        {
            "buffer" : 0,
            "byteLength" : 10596,
            "byteOffset" : 0
        },
        {
            "buffer" : 0,
            "byteLength" : 10596,
            "byteOffset" : 10596
        },
        {
            "buffer" : 0,
            "byteLength" : 7064,
            "byteOffset" : 21192
        },
        {
            "buffer" : 0,
            "byteLength" : 3792,
            "byteOffset" : 28256
        }
    ],
    "buffers" : [
        {
            "byteLength" : 32048,
            "uri" : "Rock_5.bin"
        }
    ]
}
