{
    "asset" : {
        "generator" : "Khronos glTF Blender I/O v1.6.16",
        "version" : "2.0"
    },
    "scene" : 0,
    "scenes" : [
        {
            "name" : "Scene",
            "nodes" : [
                0,
                1,
                2,
                3,
                4,
                5,
                6,
                7,
                8,
                9,
                10
            ]
        }
    ],
    "nodes" : [
        {
            "mesh" : 0,
            "name" : "Cube"
        },
        {
            "mesh" : 1,
            "name" : "rectboi"
        },
        {
            "mesh" : 2,
            "name" : "longboi"
        },
        {
            "mesh" : 3,
            "name" : "Cube.001"
        },
        {
            "mesh" : 4,
            "name" : "Cylinder"
        },
        {
            "mesh" : 5,
            "name" : "Icosphere"
        },
        {
            "mesh" : 6,
            "name" : "Cube.002"
        },
        {
            "mesh" : 7,
            "name" : "longboi.001"
        },
        {
            "mesh" : 8,
            "name" : "longboi.002"
        },
        {
            "mesh" : 9,
            "name" : "longboi.003"
        },
        {
            "mesh" : 10,
            "name" : "longboi.004"
        }
    ],
    "materials" : [
        {
            "doubleSided" : true,
            "name" : "Material.002",
            "pbrMetallicRoughness" : {
                "baseColorTexture" : {
                    "index" : 0
                },
                "metallicFactor" : 0,
                "roughnessFactor" : 0.5
            }
        }
    ],
    "meshes" : [
        {
            "name" : "Cube.001",
            "primitives" : [
                {
                    "attributes" : {
                        "POSITION" : 0,
                        "NORMAL" : 1,
                        "TEXCOORD_0" : 2
                    },
                    "indices" : 3,
                    "material" : 0
                }
            ]
        },
        {
            "name" : "Cube.005",
            "primitives" : [
                {
                    "attributes" : {
                        "POSITION" : 4,
                        "NORMAL" : 5,
                        "TEXCOORD_0" : 6
                    },
                    "indices" : 7,
                    "material" : 0
                }
            ]
        },
        {
            "name" : "Cube.002",
            "primitives" : [
                {
                    "attributes" : {
                        "POSITION" : 8,
                        "NORMAL" : 9,
                        "TEXCOORD_0" : 10
                    },
                    "indices" : 7,
                    "material" : 0
                }
            ]
        },
        {
            "name" : "Cube",
            "primitives" : [
                {
                    "attributes" : {
                        "POSITION" : 11,
                        "NORMAL" : 12,
                        "TEXCOORD_0" : 13
                    },
                    "indices" : 7,
                    "material" : 0
                }
            ]
        },
        {
            "name" : "Cylinder",
            "primitives" : [
                {
                    "attributes" : {
                        "POSITION" : 14,
                        "NORMAL" : 15,
                        "TEXCOORD_0" : 16
                    },
                    "indices" : 17,
                    "material" : 0
                }
            ]
        },
        {
            "name" : "Icosphere",
            "primitives" : [
                {
                    "attributes" : {
                        "POSITION" : 18,
                        "NORMAL" : 19,
                        "TEXCOORD_0" : 20
                    },
                    "indices" : 21,
                    "material" : 0
                }
            ]
        },
        {
            "name" : "Cube.004",
            "primitives" : [
                {
                    "attributes" : {
                        "POSITION" : 22,
                        "NORMAL" : 23,
                        "TEXCOORD_0" : 24
                    },
                    "indices" : 25,
                    "material" : 0
                }
            ]
        },
        {
            "name" : "Cube.003",
            "primitives" : [
                {
                    "attributes" : {
                        "POSITION" : 26,
                        "NORMAL" : 27,
                        "TEXCOORD_0" : 28
                    },
                    "indices" : 7,
                    "material" : 0
                }
            ]
        },
        {
            "name" : "Cube.006",
            "primitives" : [
                {
                    "attributes" : {
                        "POSITION" : 29,
                        "NORMAL" : 30,
                        "TEXCOORD_0" : 31
                    },
                    "indices" : 7,
                    "material" : 0
                }
            ]
        },
        {
            "name" : "Cube.007",
            "primitives" : [
                {
                    "attributes" : {
                        "POSITION" : 32,
                        "NORMAL" : 33,
                        "TEXCOORD_0" : 34
                    },
                    "indices" : 35,
                    "material" : 0
                }
            ]
        },
        {
            "name" : "Cube.008",
            "primitives" : [
                {
                    "attributes" : {
                        "POSITION" : 36,
                        "NORMAL" : 37,
                        "TEXCOORD_0" : 38
                    },
                    "indices" : 35,
                    "material" : 0
                }
            ]
        }
    ],
    "textures" : [
        {
            "sampler" : 0,
            "source" : 0
        }
    ],
    "images" : [
        {
            "bufferView" : 4,
            "mimeType" : "image/png",
            "name" : "default_color_grid"
        }
    ],
    "accessors" : [
        {
            "bufferView" : 0,
            "componentType" : 5126,
            "count" : 20,
            "max" : [
                610.2427978515625,
                1,
                713.603515625
            ],
            "min" : [
                -538.17919921875,
                -1,
                -731.148681640625
            ],
            "type" : "VEC3"
        },
        {
            "bufferView" : 1,
            "componentType" : 5126,
            "count" : 20,
            "type" : "VEC3"
        },
        {
            "bufferView" : 2,
            "componentType" : 5126,
            "count" : 20,
            "type" : "VEC2"
        },
        {
            "bufferView" : 3,
            "componentType" : 5123,
            "count" : 30,
            "type" : "SCALAR"
        },
        {
            "bufferView" : 5,
            "componentType" : 5126,
            "count" : 24,
            "max" : [
                5.586570739746094,
                23.17556381225586,
                40.998756408691406
            ],
            "min" : [
                -5.586570739746094,
                12.002422332763672,
                -5.586570739746094
            ],
            "type" : "VEC3"
        },
        {
            "bufferView" : 6,
            "componentType" : 5126,
            "count" : 24,
            "type" : "VEC3"
        },
        {
            "bufferView" : 7,
            "componentType" : 5126,
            "count" : 24,
            "type" : "VEC2"
        },
        {
            "bufferView" : 8,
            "componentType" : 5123,
            "count" : 36,
            "type" : "SCALAR"
        },
        {
            "bufferView" : 9,
            "componentType" : 5126,
            "count" : 24,
            "max" : [
                5.58939266204834,
                70.3738021850586,
                173.2308349609375
            ],
            "min" : [
                -5.583748817443848,
                -39.51612854003906,
                126.64550018310547
            ],
            "type" : "VEC3"
        },
        {
            "bufferView" : 10,
            "componentType" : 5126,
            "count" : 24,
            "type" : "VEC3"
        },
        {
            "bufferView" : 11,
            "componentType" : 5126,
            "count" : 24,
            "type" : "VEC2"
        },
        {
            "bufferView" : 12,
            "componentType" : 5126,
            "count" : 24,
            "max" : [
                131.84915161132812,
                21.254638671875,
                21.254638671875
            ],
            "min" : [
                89.3398666381836,
                -21.254638671875,
                -149.60475158691406
            ],
            "type" : "VEC3"
        },
        {
            "bufferView" : 13,
            "componentType" : 5126,
            "count" : 24,
            "type" : "VEC3"
        },
        {
            "bufferView" : 14,
            "componentType" : 5126,
            "count" : 24,
            "type" : "VEC2"
        },
        {
            "bufferView" : 15,
            "componentType" : 5126,
            "count" : 192,
            "max" : [
                69.92886352539062,
                47.58700942993164,
                -48.864532470703125
            ],
            "min" : [
                22.59538459777832,
                0.25353240966796875,
                -96.19801330566406
            ],
            "type" : "VEC3"
        },
        {
            "bufferView" : 16,
            "componentType" : 5126,
            "count" : 192,
            "type" : "VEC3"
        },
        {
            "bufferView" : 17,
            "componentType" : 5126,
            "count" : 192,
            "type" : "VEC2"
        },
        {
            "bufferView" : 18,
            "componentType" : 5123,
            "count" : 372,
            "type" : "SCALAR"
        },
        {
            "bufferView" : 19,
            "componentType" : 5126,
            "count" : 240,
            "max" : [
                125.7882080078125,
                48.90903091430664,
                159.54507446289062
            ],
            "min" : [
                32.757572174072266,
                -48.90903091430664,
                61.727020263671875
            ],
            "type" : "VEC3"
        },
        {
            "bufferView" : 20,
            "componentType" : 5126,
            "count" : 240,
            "type" : "VEC3"
        },
        {
            "bufferView" : 21,
            "componentType" : 5126,
            "count" : 240,
            "type" : "VEC2"
        },
        {
            "bufferView" : 22,
            "componentType" : 5123,
            "count" : 240,
            "type" : "SCALAR"
        },
        {
            "bufferView" : 23,
            "componentType" : 5126,
            "count" : 40,
            "max" : [
                -70.48221588134766,
                128.79104614257812,
                91.19290161132812
            ],
            "min" : [
                -128.70899963378906,
                -26.514556884765625,
                -162.18515014648438
            ],
            "type" : "VEC3"
        },
        {
            "bufferView" : 24,
            "componentType" : 5126,
            "count" : 40,
            "type" : "VEC3"
        },
        {
            "bufferView" : 25,
            "componentType" : 5126,
            "count" : 40,
            "type" : "VEC2"
        },
        {
            "bufferView" : 26,
            "componentType" : 5123,
            "count" : 60,
            "type" : "SCALAR"
        },
        {
            "bufferView" : 27,
            "componentType" : 5126,
            "count" : 24,
            "max" : [
                610.78515625,
                237.47640991210938,
                802.41943359375
            ],
            "min" : [
                599.612060546875,
                -39.51612854003906,
                -798.3570556640625
            ],
            "type" : "VEC3"
        },
        {
            "bufferView" : 28,
            "componentType" : 5126,
            "count" : 24,
            "type" : "VEC3"
        },
        {
            "bufferView" : 29,
            "componentType" : 5126,
            "count" : 24,
            "type" : "VEC2"
        },
        {
            "bufferView" : 30,
            "componentType" : 5126,
            "count" : 24,
            "max" : [
                -532.3935546875,
                237.6871337890625,
                793.02490234375
            ],
            "min" : [
                -543.566650390625,
                -39.51612091064453,
                -788.96240234375
            ],
            "type" : "VEC3"
        },
        {
            "bufferView" : 31,
            "componentType" : 5126,
            "count" : 24,
            "type" : "VEC3"
        },
        {
            "bufferView" : 32,
            "componentType" : 5126,
            "count" : 24,
            "type" : "VEC2"
        },
        {
            "bufferView" : 33,
            "componentType" : 5126,
            "count" : 24,
            "max" : [
                628.9256591796875,
                237.1465606689453,
                -701.0457763671875
            ],
            "min" : [
                -615.6114501953125,
                -26.65020751953125,
                -712.2189331054688
            ],
            "type" : "VEC3"
        },
        {
            "bufferView" : 34,
            "componentType" : 5126,
            "count" : 24,
            "type" : "VEC3"
        },
        {
            "bufferView" : 35,
            "componentType" : 5126,
            "count" : 24,
            "type" : "VEC2"
        },
        {
            "bufferView" : 36,
            "componentType" : 5123,
            "count" : 36,
            "type" : "SCALAR"
        },
        {
            "bufferView" : 37,
            "componentType" : 5126,
            "count" : 24,
            "max" : [
                746.8370971679688,
                235.98855590820312,
                692.93212890625
            ],
            "min" : [
                -733.5228881835938,
                -26.650222778320312,
                681.7589111328125
            ],
            "type" : "VEC3"
        },
        {
            "bufferView" : 38,
            "componentType" : 5126,
            "count" : 24,
            "type" : "VEC3"
        },
        {
            "bufferView" : 39,
            "componentType" : 5126,
            "count" : 24,
            "type" : "VEC2"
        }
    ],
    "bufferViews" : [
        {
            "buffer" : 0,
            "byteLength" : 240,
            "byteOffset" : 0
        },
        {
            "buffer" : 0,
            "byteLength" : 240,
            "byteOffset" : 240
        },
        {
            "buffer" : 0,
            "byteLength" : 160,
            "byteOffset" : 480
        },
        {
            "buffer" : 0,
            "byteLength" : 60,
            "byteOffset" : 640
        },
        {
            "buffer" : 0,
            "byteLength" : 287433,
            "byteOffset" : 700
        },
        {
            "buffer" : 0,
            "byteLength" : 288,
            "byteOffset" : 288136
        },
        {
            "buffer" : 0,
            "byteLength" : 288,
            "byteOffset" : 288424
        },
        {
            "buffer" : 0,
            "byteLength" : 192,
            "byteOffset" : 288712
        },
        {
            "buffer" : 0,
            "byteLength" : 72,
            "byteOffset" : 288904
        },
        {
            "buffer" : 0,
            "byteLength" : 288,
            "byteOffset" : 288976
        },
        {
            "buffer" : 0,
            "byteLength" : 288,
            "byteOffset" : 289264
        },
        {
            "buffer" : 0,
            "byteLength" : 192,
            "byteOffset" : 289552
        },
        {
            "buffer" : 0,
            "byteLength" : 288,
            "byteOffset" : 289744
        },
        {
            "buffer" : 0,
            "byteLength" : 288,
            "byteOffset" : 290032
        },
        {
            "buffer" : 0,
            "byteLength" : 192,
            "byteOffset" : 290320
        },
        {
            "buffer" : 0,
            "byteLength" : 2304,
            "byteOffset" : 290512
        },
        {
            "buffer" : 0,
            "byteLength" : 2304,
            "byteOffset" : 292816
        },
        {
            "buffer" : 0,
            "byteLength" : 1536,
            "byteOffset" : 295120
        },
        {
            "buffer" : 0,
            "byteLength" : 744,
            "byteOffset" : 296656
        },
        {
            "buffer" : 0,
            "byteLength" : 2880,
            "byteOffset" : 297400
        },
        {
            "buffer" : 0,
            "byteLength" : 2880,
            "byteOffset" : 300280
        },
        {
            "buffer" : 0,
            "byteLength" : 1920,
            "byteOffset" : 303160
        },
        {
            "buffer" : 0,
            "byteLength" : 480,
            "byteOffset" : 305080
        },
        {
            "buffer" : 0,
            "byteLength" : 480,
            "byteOffset" : 305560
        },
        {
            "buffer" : 0,
            "byteLength" : 480,
            "byteOffset" : 306040
        },
        {
            "buffer" : 0,
            "byteLength" : 320,
            "byteOffset" : 306520
        },
        {
            "buffer" : 0,
            "byteLength" : 120,
            "byteOffset" : 306840
        },
        {
            "buffer" : 0,
            "byteLength" : 288,
            "byteOffset" : 306960
        },
        {
            "buffer" : 0,
            "byteLength" : 288,
            "byteOffset" : 307248
        },
        {
            "buffer" : 0,
            "byteLength" : 192,
            "byteOffset" : 307536
        },
        {
            "buffer" : 0,
            "byteLength" : 288,
            "byteOffset" : 307728
        },
        {
            "buffer" : 0,
            "byteLength" : 288,
            "byteOffset" : 308016
        },
        {
            "buffer" : 0,
            "byteLength" : 192,
            "byteOffset" : 308304
        },
        {
            "buffer" : 0,
            "byteLength" : 288,
            "byteOffset" : 308496
        },
        {
            "buffer" : 0,
            "byteLength" : 288,
            "byteOffset" : 308784
        },
        {
            "buffer" : 0,
            "byteLength" : 192,
            "byteOffset" : 309072
        },
        {
            "buffer" : 0,
            "byteLength" : 72,
            "byteOffset" : 309264
        },
        {
            "buffer" : 0,
            "byteLength" : 288,
            "byteOffset" : 309336
        },
        {
            "buffer" : 0,
            "byteLength" : 288,
            "byteOffset" : 309624
        },
        {
            "buffer" : 0,
            "byteLength" : 192,
            "byteOffset" : 309912
        }
    ],
    "samplers" : [
        {
            "magFilter" : 9729,
            "minFilter" : 9987
        }
    ],
    "buffers" : [
        {
            "byteLength" : 310104,
            "uri" : "data:application/octet-stream;base64,"
        }
    ]
}
