{
    "asset" : {
        "generator" : "Khronos glTF Blender I/O v1.6.16",
        "version" : "2.0"
    },
    "scene" : 0,
    "scenes" : [
        {
            "name" : "Scene",
            "nodes" : [
                0,
                1,
                2,
                3,
                4,
                5,
                6
            ]
        }
    ],
    "nodes" : [
        {
            "mesh" : 0,
            "name" : "Cube"
        },
        {
            "mesh" : 1,
            "name" : "rectboi"
        },
        {
            "mesh" : 2,
            "name" : "longboi"
        },
        {
            "mesh" : 3,
            "name" : "Cube.001"
        },
        {
            "mesh" : 4,
            "name" : "Cylinder"
        },
        {
            "mesh" : 5,
            "name" : "Icosphere"
        },
        {
            "mesh" : 6,
            "name" : "Cube.002"
        }
    ],
    "materials" : [
        {
            "doubleSided" : true,
            "name" : "Material.002",
            "pbrMetallicRoughness" : {
                "baseColorTexture" : {
                    "index" : 0
                },
                "metallicFactor" : 0,
                "roughnessFactor" : 0.5
            }
        }
    ],
    "meshes" : [
        {
            "name" : "Cube.001",
            "primitives" : [
                {
                    "attributes" : {
                        "POSITION" : 0,
                        "NORMAL" : 1,
                        "TEXCOORD_0" : 2
                    },
                    "indices" : 3,
                    "material" : 0
                }
            ]
        },
        {
            "name" : "Cube.005",
            "primitives" : [
                {
                    "attributes" : {
                        "POSITION" : 4,
                        "NORMAL" : 5,
                        "TEXCOORD_0" : 6
                    },
                    "indices" : 3,
                    "material" : 0
                }
            ]
        },
        {
            "name" : "Cube.002",
            "primitives" : [
                {
                    "attributes" : {
                        "POSITION" : 7,
                        "NORMAL" : 8,
                        "TEXCOORD_0" : 9
                    },
                    "indices" : 3,
                    "material" : 0
                }
            ]
        },
        {
            "name" : "Cube",
            "primitives" : [
                {
                    "attributes" : {
                        "POSITION" : 10,
                        "NORMAL" : 11,
                        "TEXCOORD_0" : 12
                    },
                    "indices" : 3,
                    "material" : 0
                }
            ]
        },
        {
            "name" : "Cylinder",
            "primitives" : [
                {
                    "attributes" : {
                        "POSITION" : 13,
                        "NORMAL" : 14,
                        "TEXCOORD_0" : 15
                    },
                    "indices" : 16,
                    "material" : 0
                }
            ]
        },
        {
            "name" : "Icosphere",
            "primitives" : [
                {
                    "attributes" : {
                        "POSITION" : 17,
                        "NORMAL" : 18,
                        "TEXCOORD_0" : 19
                    },
                    "indices" : 20,
                    "material" : 0
                }
            ]
        },
        {
            "name" : "Cube.004",
            "primitives" : [
                {
                    "attributes" : {
                        "POSITION" : 21,
                        "NORMAL" : 22,
                        "TEXCOORD_0" : 23
                    },
                    "indices" : 24,
                    "material" : 0
                }
            ]
        }
    ],
    "textures" : [
        {
            "sampler" : 0,
            "source" : 0
        }
    ],
    "images" : [
        {
            "bufferView" : 4,
            "mimeType" : "image/png",
            "name" : "default_color_grid"
        }
    ],
    "accessors" : [
        {
            "bufferView" : 0,
            "componentType" : 5126,
            "count" : 24,
            "max" : [
                204.03428649902344,
                1,
                241.0688018798828
            ],
            "min" : [
                -204.03428649902344,
                -1,
                -241.0688018798828
            ],
            "type" : "VEC3"
        },
        {
            "bufferView" : 1,
            "componentType" : 5126,
            "count" : 24,
            "type" : "VEC3"
        },
        {
            "bufferView" : 2,
            "componentType" : 5126,
            "count" : 24,
            "type" : "VEC2"
        },
        {
            "bufferView" : 3,
            "componentType" : 5123,
            "count" : 36,
            "type" : "SCALAR"
        },
        {
            "bufferView" : 5,
            "componentType" : 5126,
            "count" : 24,
            "max" : [
                5.586570739746094,
                23.17556381225586,
                40.998756408691406
            ],
            "min" : [
                -5.586570739746094,
                12.002422332763672,
                -5.586570739746094
            ],
            "type" : "VEC3"
        },
        {
            "bufferView" : 6,
            "componentType" : 5126,
            "count" : 24,
            "type" : "VEC3"
        },
        {
            "bufferView" : 7,
            "componentType" : 5126,
            "count" : 24,
            "type" : "VEC2"
        },
        {
            "bufferView" : 8,
            "componentType" : 5126,
            "count" : 24,
            "max" : [
                5.58939266204834,
                70.3738021850586,
                173.2308349609375
            ],
            "min" : [
                -5.583748817443848,
                -39.51612854003906,
                126.64550018310547
            ],
            "type" : "VEC3"
        },
        {
            "bufferView" : 9,
            "componentType" : 5126,
            "count" : 24,
            "type" : "VEC3"
        },
        {
            "bufferView" : 10,
            "componentType" : 5126,
            "count" : 24,
            "type" : "VEC2"
        },
        {
            "bufferView" : 11,
            "componentType" : 5126,
            "count" : 24,
            "max" : [
                131.84915161132812,
                21.254638671875,
                21.254638671875
            ],
            "min" : [
                89.3398666381836,
                -21.254638671875,
                -149.60475158691406
            ],
            "type" : "VEC3"
        },
        {
            "bufferView" : 12,
            "componentType" : 5126,
            "count" : 24,
            "type" : "VEC3"
        },
        {
            "bufferView" : 13,
            "componentType" : 5126,
            "count" : 24,
            "type" : "VEC2"
        },
        {
            "bufferView" : 14,
            "componentType" : 5126,
            "count" : 192,
            "max" : [
                69.92886352539062,
                47.58700942993164,
                -48.864532470703125
            ],
            "min" : [
                22.59538459777832,
                0.25353240966796875,
                -96.19801330566406
            ],
            "type" : "VEC3"
        },
        {
            "bufferView" : 15,
            "componentType" : 5126,
            "count" : 192,
            "type" : "VEC3"
        },
        {
            "bufferView" : 16,
            "componentType" : 5126,
            "count" : 192,
            "type" : "VEC2"
        },
        {
            "bufferView" : 17,
            "componentType" : 5123,
            "count" : 372,
            "type" : "SCALAR"
        },
        {
            "bufferView" : 18,
            "componentType" : 5126,
            "count" : 240,
            "max" : [
                125.7882080078125,
                48.90903091430664,
                159.54507446289062
            ],
            "min" : [
                32.757572174072266,
                -48.90903091430664,
                61.727020263671875
            ],
            "type" : "VEC3"
        },
        {
            "bufferView" : 19,
            "componentType" : 5126,
            "count" : 240,
            "type" : "VEC3"
        },
        {
            "bufferView" : 20,
            "componentType" : 5126,
            "count" : 240,
            "type" : "VEC2"
        },
        {
            "bufferView" : 21,
            "componentType" : 5123,
            "count" : 240,
            "type" : "SCALAR"
        },
        {
            "bufferView" : 22,
            "componentType" : 5126,
            "count" : 40,
            "max" : [
                -70.48221588134766,
                128.79104614257812,
                91.19290161132812
            ],
            "min" : [
                -128.70899963378906,
                -26.514556884765625,
                -162.18515014648438
            ],
            "type" : "VEC3"
        },
        {
            "bufferView" : 23,
            "componentType" : 5126,
            "count" : 40,
            "type" : "VEC3"
        },
        {
            "bufferView" : 24,
            "componentType" : 5126,
            "count" : 40,
            "type" : "VEC2"
        },
        {
            "bufferView" : 25,
            "componentType" : 5123,
            "count" : 60,
            "type" : "SCALAR"
        }
    ],
    "bufferViews" : [
        {
            "buffer" : 0,
            "byteLength" : 288,
            "byteOffset" : 0
        },
        {
            "buffer" : 0,
            "byteLength" : 288,
            "byteOffset" : 288
        },
        {
            "buffer" : 0,
            "byteLength" : 192,
            "byteOffset" : 576
        },
        {
            "buffer" : 0,
            "byteLength" : 72,
            "byteOffset" : 768
        },
        {
            "buffer" : 0,
            "byteLength" : 287433,
            "byteOffset" : 840
        },
        {
            "buffer" : 0,
            "byteLength" : 288,
            "byteOffset" : 288276
        },
        {
            "buffer" : 0,
            "byteLength" : 288,
            "byteOffset" : 288564
        },
        {
            "buffer" : 0,
            "byteLength" : 192,
            "byteOffset" : 288852
        },
        {
            "buffer" : 0,
            "byteLength" : 288,
            "byteOffset" : 289044
        },
        {
            "buffer" : 0,
            "byteLength" : 288,
            "byteOffset" : 289332
        },
        {
            "buffer" : 0,
            "byteLength" : 192,
            "byteOffset" : 289620
        },
        {
            "buffer" : 0,
            "byteLength" : 288,
            "byteOffset" : 289812
        },
        {
            "buffer" : 0,
            "byteLength" : 288,
            "byteOffset" : 290100
        },
        {
            "buffer" : 0,
            "byteLength" : 192,
            "byteOffset" : 290388
        },
        {
            "buffer" : 0,
            "byteLength" : 2304,
            "byteOffset" : 290580
        },
        {
            "buffer" : 0,
            "byteLength" : 2304,
            "byteOffset" : 292884
        },
        {
            "buffer" : 0,
            "byteLength" : 1536,
            "byteOffset" : 295188
        },
        {
            "buffer" : 0,
            "byteLength" : 744,
            "byteOffset" : 296724
        },
        {
            "buffer" : 0,
            "byteLength" : 2880,
            "byteOffset" : 297468
        },
        {
            "buffer" : 0,
            "byteLength" : 2880,
            "byteOffset" : 300348
        },
        {
            "buffer" : 0,
            "byteLength" : 1920,
            "byteOffset" : 303228
        },
        {
            "buffer" : 0,
            "byteLength" : 480,
            "byteOffset" : 305148
        },
        {
            "buffer" : 0,
            "byteLength" : 480,
            "byteOffset" : 305628
        },
        {
            "buffer" : 0,
            "byteLength" : 480,
            "byteOffset" : 306108
        },
        {
            "buffer" : 0,
            "byteLength" : 320,
            "byteOffset" : 306588
        },
        {
            "buffer" : 0,
            "byteLength" : 120,
            "byteOffset" : 306908
        }
    ],
    "samplers" : [
        {
            "magFilter" : 9729,
            "minFilter" : 9987
        }
    ],
    "buffers" : [
        {
            "byteLength" : 307028,
            "uri" : "data:application/octet-stream;base64,"
        }
    ]
}
