{
    "asset" : {
        "generator" : "Khronos glTF Blender I/O v1.8.19",
        "version" : "2.0"
    },
    "scene" : 0,
    "scenes" : [
        {
            "name" : "Scene",
            "nodes" : [
                0
            ]
        }
    ],
    "nodes" : [
        {
            "mesh" : 0,
            "name" : "TowerHouse_SecondAge"
        }
    ],
    "materials" : [
        {
            "doubleSided" : true,
            "name" : "Wood",
            "pbrMetallicRoughness" : {
                "baseColorFactor" : [
                    0.24618732929229736,
                    0.14435896277427673,
                    0.053798429667949677,
                    1
                ],
                "metallicFactor" : 0,
                "roughnessFactor" : 0.5
            }
        },
        {
            "doubleSided" : true,
            "name" : "Wood_Light",
            "pbrMetallicRoughness" : {
                "baseColorFactor" : [
                    0.3757452964782715,
                    0.24318844079971313,
                    0.09746062755584717,
                    1
                ],
                "metallicFactor" : 0,
                "roughnessFactor" : 0.5
            }
        },
        {
            "doubleSided" : true,
            "name" : "Stone",
            "pbrMetallicRoughness" : {
                "baseColorFactor" : [
                    0.24436430633068085,
                    0.24618881940841675,
                    0.21545054018497467,
                    1
                ],
                "metallicFactor" : 0,
                "roughnessFactor" : 0.5
            }
        },
        {
            "doubleSided" : true,
            "name" : "Stone_Light",
            "pbrMetallicRoughness" : {
                "baseColorFactor" : [
                    0.454056978225708,
                    0.4575270116329193,
                    0.3991142511367798,
                    1
                ],
                "metallicFactor" : 0,
                "roughnessFactor" : 0.5
            }
        },
        {
            "doubleSided" : true,
            "name" : "Main",
            "pbrMetallicRoughness" : {
                "baseColorFactor" : [
                    0.4385380148887634,
                    0.09992149472236633,
                    0.05885644257068634,
                    1
                ],
                "metallicFactor" : 0,
                "roughnessFactor" : 0.5
            }
        },
        {
            "doubleSided" : true,
            "name" : "Walls",
            "pbrMetallicRoughness" : {
                "baseColorFactor" : [
                    0.4352165758609772,
                    0.4385380148887634,
                    0.3826240599155426,
                    1
                ],
                "metallicFactor" : 0,
                "roughnessFactor" : 0.5
            }
        }
    ],
    "meshes" : [
        {
            "name" : "Cube.028",
            "primitives" : [
                {
                    "attributes" : {
                        "POSITION" : 0,
                        "NORMAL" : 1,
                        "TEXCOORD_0" : 2
                    },
                    "indices" : 3,
                    "material" : 0
                },
                {
                    "attributes" : {
                        "POSITION" : 4,
                        "NORMAL" : 5,
                        "TEXCOORD_0" : 6
                    },
                    "indices" : 7,
                    "material" : 1
                },
                {
                    "attributes" : {
                        "POSITION" : 8,
                        "NORMAL" : 9,
                        "TEXCOORD_0" : 10
                    },
                    "indices" : 11,
                    "material" : 2
                },
                {
                    "attributes" : {
                        "POSITION" : 12,
                        "NORMAL" : 13,
                        "TEXCOORD_0" : 14
                    },
                    "indices" : 15,
                    "material" : 3
                },
                {
                    "attributes" : {
                        "POSITION" : 16,
                        "NORMAL" : 17,
                        "TEXCOORD_0" : 18
                    },
                    "indices" : 19,
                    "material" : 4
                },
                {
                    "attributes" : {
                        "POSITION" : 20,
                        "NORMAL" : 21,
                        "TEXCOORD_0" : 22
                    },
                    "indices" : 23,
                    "material" : 5
                }
            ]
        }
    ],
    "accessors" : [
        {
            "bufferView" : 0,
            "componentType" : 5126,
            "count" : 1296,
            "max" : [
                0.6853018403053284,
                1.5046054124832153,
                0.5850149393081665
            ],
            "min" : [
                -0.6853018403053284,
                0.001981117995455861,
                -0.5850149393081665
            ],
            "type" : "VEC3"
        },
        {
            "bufferView" : 1,
            "componentType" : 5126,
            "count" : 1296,
            "type" : "VEC3"
        },
        {
            "bufferView" : 2,
            "componentType" : 5126,
            "count" : 1296,
            "type" : "VEC2"
        },
        {
            "bufferView" : 3,
            "componentType" : 5123,
            "count" : 2046,
            "type" : "SCALAR"
        },
        {
            "bufferView" : 4,
            "componentType" : 5126,
            "count" : 136,
            "max" : [
                0.08334582298994064,
                0.2691098749637604,
                0.4741869866847992
            ],
            "min" : [
                -0.08334582298994064,
                0.0004618043312802911,
                -0.48072749376296997
            ],
            "type" : "VEC3"
        },
        {
            "bufferView" : 5,
            "componentType" : 5126,
            "count" : 136,
            "type" : "VEC3"
        },
        {
            "bufferView" : 6,
            "componentType" : 5126,
            "count" : 136,
            "type" : "VEC2"
        },
        {
            "bufferView" : 7,
            "componentType" : 5123,
            "count" : 228,
            "type" : "SCALAR"
        },
        {
            "bufferView" : 8,
            "componentType" : 5126,
            "count" : 520,
            "max" : [
                0.5671885013580322,
                1.261688232421875,
                0.5460783243179321
            ],
            "min" : [
                -0.5671885013580322,
                0.0015310125891119242,
                -0.5460783243179321
            ],
            "type" : "VEC3"
        },
        {
            "bufferView" : 9,
            "componentType" : 5126,
            "count" : 520,
            "type" : "VEC3"
        },
        {
            "bufferView" : 10,
            "componentType" : 5126,
            "count" : 520,
            "type" : "VEC2"
        },
        {
            "bufferView" : 11,
            "componentType" : 5123,
            "count" : 990,
            "type" : "SCALAR"
        },
        {
            "bufferView" : 12,
            "componentType" : 5126,
            "count" : 1104,
            "max" : [
                0.37013858556747437,
                1.3709341287612915,
                0.5332348942756653
            ],
            "min" : [
                -0.37013858556747437,
                0.43634891510009766,
                -0.5332348942756653
            ],
            "type" : "VEC3"
        },
        {
            "bufferView" : 13,
            "componentType" : 5126,
            "count" : 1104,
            "type" : "VEC3"
        },
        {
            "bufferView" : 14,
            "componentType" : 5126,
            "count" : 1104,
            "type" : "VEC2"
        },
        {
            "bufferView" : 15,
            "componentType" : 5123,
            "count" : 1656,
            "type" : "SCALAR"
        },
        {
            "bufferView" : 16,
            "componentType" : 5126,
            "count" : 3148,
            "max" : [
                0.6839379072189331,
                1.4858424663543701,
                0.5586085915565491
            ],
            "min" : [
                -0.6839379072189331,
                0.2377174347639084,
                -0.5537368655204773
            ],
            "type" : "VEC3"
        },
        {
            "bufferView" : 17,
            "componentType" : 5126,
            "count" : 3148,
            "type" : "VEC3"
        },
        {
            "bufferView" : 18,
            "componentType" : 5126,
            "count" : 3148,
            "type" : "VEC2"
        },
        {
            "bufferView" : 19,
            "componentType" : 5123,
            "count" : 6444,
            "type" : "SCALAR"
        },
        {
            "bufferView" : 20,
            "componentType" : 5126,
            "count" : 62,
            "max" : [
                0.54524827003479,
                0.6898365616798401,
                0.4483717679977417
            ],
            "min" : [
                -0.54524827003479,
                0.055712971836328506,
                -0.4483717679977417
            ],
            "type" : "VEC3"
        },
        {
            "bufferView" : 21,
            "componentType" : 5126,
            "count" : 62,
            "type" : "VEC3"
        },
        {
            "bufferView" : 22,
            "componentType" : 5126,
            "count" : 62,
            "type" : "VEC2"
        },
        {
            "bufferView" : 23,
            "componentType" : 5123,
            "count" : 108,
            "type" : "SCALAR"
        }
    ],
    "bufferViews" : [
        {
            "buffer" : 0,
            "byteLength" : 15552,
            "byteOffset" : 0
        },
        {
            "buffer" : 0,
            "byteLength" : 15552,
            "byteOffset" : 15552
        },
        {
            "buffer" : 0,
            "byteLength" : 10368,
            "byteOffset" : 31104
        },
        {
            "buffer" : 0,
            "byteLength" : 4092,
            "byteOffset" : 41472
        },
        {
            "buffer" : 0,
            "byteLength" : 1632,
            "byteOffset" : 45564
        },
        {
            "buffer" : 0,
            "byteLength" : 1632,
            "byteOffset" : 47196
        },
        {
            "buffer" : 0,
            "byteLength" : 1088,
            "byteOffset" : 48828
        },
        {
            "buffer" : 0,
            "byteLength" : 456,
            "byteOffset" : 49916
        },
        {
            "buffer" : 0,
            "byteLength" : 6240,
            "byteOffset" : 50372
        },
        {
            "buffer" : 0,
            "byteLength" : 6240,
            "byteOffset" : 56612
        },
        {
            "buffer" : 0,
            "byteLength" : 4160,
            "byteOffset" : 62852
        },
        {
            "buffer" : 0,
            "byteLength" : 1980,
            "byteOffset" : 67012
        },
        {
            "buffer" : 0,
            "byteLength" : 13248,
            "byteOffset" : 68992
        },
        {
            "buffer" : 0,
            "byteLength" : 13248,
            "byteOffset" : 82240
        },
        {
            "buffer" : 0,
            "byteLength" : 8832,
            "byteOffset" : 95488
        },
        {
            "buffer" : 0,
            "byteLength" : 3312,
            "byteOffset" : 104320
        },
        {
            "buffer" : 0,
            "byteLength" : 37776,
            "byteOffset" : 107632
        },
        {
            "buffer" : 0,
            "byteLength" : 37776,
            "byteOffset" : 145408
        },
        {
            "buffer" : 0,
            "byteLength" : 25184,
            "byteOffset" : 183184
        },
        {
            "buffer" : 0,
            "byteLength" : 12888,
            "byteOffset" : 208368
        },
        {
            "buffer" : 0,
            "byteLength" : 744,
            "byteOffset" : 221256
        },
        {
            "buffer" : 0,
            "byteLength" : 744,
            "byteOffset" : 222000
        },
        {
            "buffer" : 0,
            "byteLength" : 496,
            "byteOffset" : 222744
        },
        {
            "buffer" : 0,
            "byteLength" : 216,
            "byteOffset" : 223240
        }
    ],
    "buffers" : [
        {
            "byteLength" : 223456,
            "uri" : "TowerHouse_SecondAge.bin"
        }
    ]
}
