{
    "asset" : {
        "generator" : "Khronos glTF Blender I/O v1.8.19",
        "version" : "2.0"
    },
    "scene" : 0,
    "scenes" : [
        {
            "name" : "Scene",
            "nodes" : [
                0
            ]
        }
    ],
    "nodes" : [
        {
            "mesh" : 0,
            "name" : "TownCenter_FirstAge_Level3"
        }
    ],
    "materials" : [
        {
            "doubleSided" : true,
            "name" : "Wood",
            "pbrMetallicRoughness" : {
                "baseColorFactor" : [
                    0.24618732929229736,
                    0.14435896277427673,
                    0.053798429667949677,
                    1
                ],
                "metallicFactor" : 0,
                "roughnessFactor" : 0.5
            }
        },
        {
            "doubleSided" : true,
            "name" : "Wood_Light",
            "pbrMetallicRoughness" : {
                "baseColorFactor" : [
                    0.3757452964782715,
                    0.24318844079971313,
                    0.09746062755584717,
                    1
                ],
                "metallicFactor" : 0,
                "roughnessFactor" : 0.5
            }
        },
        {
            "doubleSided" : true,
            "name" : "Green",
            "pbrMetallicRoughness" : {
                "baseColorFactor" : [
                    0.09404914081096649,
                    0.1788560301065445,
                    0.012008205987513065,
                    1
                ],
                "metallicFactor" : 0,
                "roughnessFactor" : 0.5
            }
        }
    ],
    "meshes" : [
        {
            "name" : "Cube.273",
            "primitives" : [
                {
                    "attributes" : {
                        "POSITION" : 0,
                        "NORMAL" : 1,
                        "TEXCOORD_0" : 2
                    },
                    "indices" : 3,
                    "material" : 0
                },
                {
                    "attributes" : {
                        "POSITION" : 4,
                        "NORMAL" : 5,
                        "TEXCOORD_0" : 6
                    },
                    "indices" : 7,
                    "material" : 1
                },
                {
                    "attributes" : {
                        "POSITION" : 8,
                        "NORMAL" : 9,
                        "TEXCOORD_0" : 10
                    },
                    "indices" : 11,
                    "material" : 2
                }
            ]
        }
    ],
    "accessors" : [
        {
            "bufferView" : 0,
            "componentType" : 5126,
            "count" : 5169,
            "max" : [
                115.3328628540039,
                224.2175750732422,
                113.47828674316406
            ],
            "min" : [
                -115.33275604248047,
                -7.425827980041504,
                -113.47828674316406
            ],
            "type" : "VEC3"
        },
        {
            "bufferView" : 1,
            "componentType" : 5126,
            "count" : 5169,
            "type" : "VEC3"
        },
        {
            "bufferView" : 2,
            "componentType" : 5126,
            "count" : 5169,
            "type" : "VEC2"
        },
        {
            "bufferView" : 3,
            "componentType" : 5123,
            "count" : 13746,
            "type" : "SCALAR"
        },
        {
            "bufferView" : 4,
            "componentType" : 5126,
            "count" : 596,
            "max" : [
                116.74102020263672,
                109.64422607421875,
                114.60018920898438
            ],
            "min" : [
                -116.74092864990234,
                -7.425827980041504,
                -114.60018920898438
            ],
            "type" : "VEC3"
        },
        {
            "bufferView" : 5,
            "componentType" : 5126,
            "count" : 596,
            "type" : "VEC3"
        },
        {
            "bufferView" : 6,
            "componentType" : 5126,
            "count" : 596,
            "type" : "VEC2"
        },
        {
            "bufferView" : 7,
            "componentType" : 5123,
            "count" : 942,
            "type" : "SCALAR"
        },
        {
            "bufferView" : 8,
            "componentType" : 5126,
            "count" : 596,
            "max" : [
                116.700439453125,
                82.28596496582031,
                113.59506225585938
            ],
            "min" : [
                -116.70033264160156,
                42.633968353271484,
                -113.59506225585938
            ],
            "type" : "VEC3"
        },
        {
            "bufferView" : 9,
            "componentType" : 5126,
            "count" : 596,
            "type" : "VEC3"
        },
        {
            "bufferView" : 10,
            "componentType" : 5126,
            "count" : 596,
            "type" : "VEC2"
        },
        {
            "bufferView" : 11,
            "componentType" : 5123,
            "count" : 1536,
            "type" : "SCALAR"
        }
    ],
    "bufferViews" : [
        {
            "buffer" : 0,
            "byteLength" : 62028,
            "byteOffset" : 0
        },
        {
            "buffer" : 0,
            "byteLength" : 62028,
            "byteOffset" : 62028
        },
        {
            "buffer" : 0,
            "byteLength" : 41352,
            "byteOffset" : 124056
        },
        {
            "buffer" : 0,
            "byteLength" : 27492,
            "byteOffset" : 165408
        },
        {
            "buffer" : 0,
            "byteLength" : 7152,
            "byteOffset" : 192900
        },
        {
            "buffer" : 0,
            "byteLength" : 7152,
            "byteOffset" : 200052
        },
        {
            "buffer" : 0,
            "byteLength" : 4768,
            "byteOffset" : 207204
        },
        {
            "buffer" : 0,
            "byteLength" : 1884,
            "byteOffset" : 211972
        },
        {
            "buffer" : 0,
            "byteLength" : 7152,
            "byteOffset" : 213856
        },
        {
            "buffer" : 0,
            "byteLength" : 7152,
            "byteOffset" : 221008
        },
        {
            "buffer" : 0,
            "byteLength" : 4768,
            "byteOffset" : 228160
        },
        {
            "buffer" : 0,
            "byteLength" : 3072,
            "byteOffset" : 232928
        }
    ],
    "buffers" : [
        {
            "byteLength" : 236000,
            "uri" : "town_center.bin"
        }
    ]
}
